Coordinates
version=1
nRows=11
nColumns=40
inDegrees=yes

Units are S.I. units (second, meters, Newtons, ...)
Angles are in degrees.

endheader
time	pelvis_tilt	pelvis_list	pelvis_rotation	pelvis_tx	pelvis_ty	pelvis_tz	hip_flexion_r	hip_adduction_r	hip_rotation_r	knee_angle_r	knee_angle_r_beta	ankle_angle_r	subtalar_angle_r	mtp_angle_r	hip_flexion_l	hip_adduction_l	hip_rotation_l	knee_angle_l	knee_angle_l_beta	ankle_angle_l	subtalar_angle_l	mtp_angle_l	lumbar_extension	lumbar_bending	lumbar_rotation	arm_flex_r	arm_add_r	arm_rot_r	elbow_flex_r	pro_sup_r	wrist_flex_r	wrist_dev_r	arm_flex_l	arm_add_l	arm_rot_l	elbow_flex_l	pro_sup_l	wrist_flex_l	wrist_dev_l
     46.09750000	     -2.26630739	     -4.62216246	      4.09601673	      1.08423246	      0.90853792	      0.58559995	     15.62638428	      6.01055144	     -5.22247166	     32.59643677	     32.59643677	     20.04833336	    -10.91311693	      0.18553189	     33.49132220	    -15.89516490	      8.45817141	     72.42035010	     72.42035010	      9.71050236	    -19.15095952	     16.34008805	    -10.93301237	      4.96416500	      0.36439003	     23.94510543	    -16.23139892	     -3.64855052	     55.18731543	     45.40978861	      0.00000000	      0.00000000	     -3.18250828	     -7.23153630	      4.16420020	     22.40749109	     45.01638155	      0.00000000	      0.00000000
     46.11785714	     -1.92021909	     -4.62777907	      4.76967297	      1.08356739	      0.90767322	      0.58564271	     15.21586452	      6.09177344	     -5.38878836	     32.97103860	     32.97103860	     20.44981203	    -11.53898575	      0.17789868	     34.61251251	    -15.60916223	      9.39963839	     73.27252052	     73.27252052	     10.00563340	    -19.27778210	     16.41410228	    -11.02665243	      4.93479133	      0.85289777	     26.87566699	    -16.73619581	     -4.08621331	     56.76282716	     45.38832469	      0.00000000	      0.00000000	     -5.44050230	     -6.90055571	      4.50749950	     21.59730788	     44.90403863	      0.00000000	      0.00000000
     46.13821429	     -1.68441720	     -4.50898572	      5.54175226	      1.08285809	      0.90760794	      0.58514635	     14.73017070	      6.02753945	     -5.55497376	     33.01202894	     33.01202894	     20.90519507	    -12.13197531	      1.02535219	     35.56481794	    -15.10377074	     10.21456004	     73.24548154	     73.24548154	     10.80345546	    -19.31696086	     18.20353012	    -10.94957421	      4.85572435	      1.06916253	     29.38240805	    -17.22212719	     -4.91462494	     59.86653301	     45.37253133	      0.00000000	      0.00000000	     -8.88293582	     -8.58466651	     17.31564038	     24.20621411	     42.53773107	      0.00000000	      0.00000000
     46.15857143	     -1.55256478	     -4.42136111	      6.32228018	      1.08204008	      0.90821486	      0.58429565	     14.11422145	      5.94105762	     -5.87664758	     32.56802354	     32.56802354	     20.97711573	    -12.51231882	      1.11064607	     36.29893069	    -14.69773947	     10.83060855	     72.22567926	     72.22567926	     11.03205011	    -19.35885984	     18.31637979	    -10.82714961	      4.79976441	      1.20853578	     32.27856599	    -17.61129605	     -5.35807376	     61.72260550	     45.34125721	      0.00000000	      0.00000000	    -10.94964111	     -8.30404687	     17.50262535	     23.74307059	     42.50396662	      0.00000000	      0.00000000
     46.17892857	     -1.51315895	     -4.26200517	      7.14550836	      1.08106288	      0.90950243	      0.58299207	     13.42269319	      5.72326256	     -6.29651505	     31.80335095	     31.80335095	     20.92318600	    -12.70236025	      1.24094528	     36.79299285	    -14.22229473	     11.22285796	     70.26856698	     70.26856698	     11.23524517	    -19.36188970	     18.40310169	    -10.65918937	      4.67742384	      1.28659588	     35.09651118	    -18.06472840	     -5.80391649	     63.70867716	     45.30554129	      0.00000000	      0.00000000	    -12.89363689	     -8.11632198	     17.70286998	     23.60267778	     42.46336254	      0.00000000	      0.00000000
     46.19928571	     -1.76706511	     -4.02403712	      7.97219415	      1.07972515	      0.91094247	      0.58129979	     13.00723816	      5.34597553	     -6.76324915	     30.95556096	     30.95556096	     20.78444958	    -12.81129246	      1.44360520	     37.29115404	    -13.63711092	     11.36412367	     67.46559544	     67.46559544	     11.34940342	    -19.34209119	     18.51722978	    -10.17459588	      4.44420153	      1.68855905	     37.78163321	    -18.99223383	     -6.24965017	     65.00426663	     45.29208936	      0.00000000	      0.00000000	    -14.35948017	     -7.96870795	     17.79817412	     23.38457808	     42.42959554	      0.00000000	      0.00000000
     46.21964286	     -1.88724043	     -3.82024754	      8.81376547	      1.07840193	      0.91315972	      0.57935401	     12.21573333	      5.00541461	     -7.37544091	     29.68467412	     29.68467412	     20.50334512	    -12.65257519	      1.68878848	     37.25388708	    -13.11519269	     11.35884651	     63.78926287	     63.78926287	     11.41108433	    -19.28566991	     18.47798936	     -9.91128528	      4.24090648	      1.70257917	     40.50671493	    -19.46491491	     -6.62167994	     66.79216097	     45.25924740	      0.00000000	      0.00000000	    -15.77468570	     -7.80468222	     17.93870416	     23.36289561	     42.38999239	      0.00000000	      0.00000000
     46.24000000	     -1.93512378	     -3.65557515	      9.64577969	      1.07704226	      0.91569873	      0.57698330	     11.17592332	      4.66950631	     -8.17005009	     28.10541491	     28.10541491	     20.19161350	    -12.01436668	      1.65637519	     36.77905810	    -12.63626808	     11.20018203	     59.37731948	     59.37731948	     11.03637825	    -19.15648720	     17.37778073	     -9.89305455	      4.24599935	      1.38717945	     43.01936288	    -19.52432769	     -6.95637315	     69.48502000	     45.19560943	      0.00000000	      0.00000000	    -17.38486202	     -7.68399421	     18.20808830	     24.04693942	     42.33805337	      0.00000000	      0.00000000
     46.26035714	     -2.25967929	     -3.41376205	     10.41063781	      1.07544943	      0.91774675	      0.57451431	     10.52353928	      4.19592651	     -8.96127337	     26.68650031	     26.68650031	     19.57952817	    -11.59265974	      0.81530138	     36.13905858	    -12.18399664	     10.60018807	     54.12909370	     54.12909370	      9.20917814	    -19.02492466	     12.58011700	     -9.58485708	      3.99675864	      1.78713927	     44.91142845	    -20.40913262	     -7.53547346	     72.31682851	     45.14840672	      0.00000000	      0.00000000	    -18.78099189	     -8.13608863	     19.27714217	     26.20455488	     42.26617428	      0.00000000	      0.00000000
     46.28071429	     -2.80336726	     -3.22395412	     11.07832468	      1.07356705	      0.91933441	      0.57175566	     10.21954567	      3.77413882	     -9.47354489	     25.45717282	     25.45717282	     19.27043345	    -11.37544482	      1.07574950	     35.64373515	    -11.47932191	     10.23871150	     48.94475450	     48.94475450	      9.14843746	    -18.44523858	     12.92466352	     -8.99658548	      3.84007113	      1.96682598	     47.38997957	    -20.99725314	     -7.80415296	     73.28601704	     45.13854378	      0.00000000	      0.00000000	    -19.38074081	     -7.94318906	     19.43899340	     26.11229459	     42.24512619	      0.00000000	      0.00000000
     46.30107143	     -2.75972042	     -3.05738315	     11.68473806	      1.07224419	      0.92154628	      0.56893134	      9.08589639	      3.46134527	    -10.29282355	     23.95517574	     23.95517574	     19.00961912	    -10.43508392	      1.12864349	     34.11336251	    -10.96080236	      9.79440529	     43.32907149	     43.32907149	      8.80844754	    -17.54283470	     12.32388520	     -9.06602784	      3.71814292	      1.87545992	     49.54719630	    -21.06216664	     -7.92262677	     74.56139431	     45.11350047	      0.00000000	      0.00000000	    -19.98650267	     -7.74993521	     19.72442494	     26.17511763	     42.21973585	      0.00000000	      0.00000000
